<?xml version="1.0" encoding="UTF-8"?>
<svg id="Layer_2" data-name="Layer 2" xmlns="http://www.w3.org/2000/svg" viewBox="0 0 136.55 138.18">
  <defs>
    <style>
      .cls-1, .cls-2, .cls-3 {
        fill-rule: evenodd;
      }

      .cls-1, .cls-4 {
        fill: #ff8102;
      }

      .cls-2 {
        fill: #fff;
      }

      .cls-3 {
        fill: #740107;
      }
    </style>
  </defs>
  <g id="Layer_1-2" data-name="Layer 1">
    <circle class="cls-4" cx="68.27" cy="63.61" r="63.61"/>
    <path class="cls-2" d="M104.35,94.87c-1.33,1.12-2.91,2.17-4.81,3.14-1.86.95-3.58,1.76-5.17,2.43h0s-4.31-7.17-6.49-3.77c-1.47,2.29-3.38,4.73-6.53,6.54-3.13,1.8-8.11,2.7-13.09,2.7s-9.95-.9-13.09-2.7c-3.15-1.81-5.07-4.25-6.53-6.54-2.18-3.4-6.48,3.79-6.49,3.78h0c-1.59-.68-3.31-1.49-5.17-2.44-1.89-.97-3.48-2.02-4.81-3.14-2.4,2.24-6.92,7.26-9.14,14.95,5.87-.62,11.09-.58,15.63,1.31,4.73,1.97,8.52,5.81,11.2,12.74.44,1.14.68,2.27.75,3.37h35.28c.07-1.1.31-2.23.75-3.37,2.68-6.93,6.47-10.77,11.2-12.74,4.54-1.89,9.76-1.93,15.63-1.31-2.21-7.69-6.74-12.71-9.14-14.95Z"/>
    <path class="cls-3" d="M118.89,111.36c-2.12-10.36-8.12-17.13-11.26-20.08l-3.28,3.59c2.4,2.24,6.92,7.26,9.14,14.95-5.87-.62-11.09-.58-15.63,1.31-4.73,1.97-8.52,5.81-11.2,12.74-.44,1.14-.68,2.27-.75,3.37h-35.28c-.07-1.1-.31-2.23-.75-3.37-2.68-6.93-6.47-10.77-11.2-12.74-4.54-1.89-9.76-1.93-15.63-1.31,2.22-7.69,6.74-12.71,9.14-14.95.7.59,1.46,1.16,2.31,1.71-4.03-2.97-5.59-5.29-5.59-5.29-3.14,2.94-9.14,9.72-11.26,20.08-7.03,3.54-9.79,11.94-10.72,15.87H0v4.89h7.3c.79,1.5,2.33,3.48,5.23,4.45,3.38,1.13,7.19-.88,9.29-2.3.18.12.37.24.55.35,2.25,1.34,4.66,1.9,7,1.72,1.37-.1,2.71-.46,3.97-1.05,2.38,2.08,4.98,2.94,7.42,2.9,1.82-.03,3.53-.57,5.01-1.48,1.46-.9,2.69-2.18,3.54-3.69.16-.29.32-.59.45-.9h37.03c.14.31.29.61.45.9.86,1.51,2.08,2.78,3.54,3.69,1.47.91,3.19,1.45,5.01,1.48,2.44.04,5.03-.82,7.42-2.9,1.27.59,2.6.94,3.97,1.05,2.34.18,4.75-.37,7-1.72.19-.11.37-.23.55-.35,2.1,1.42,5.9,3.43,9.29,2.3,2.89-.96,4.44-2.94,5.23-4.45h7.3v-4.89h-6.94c-.93-3.93-3.69-12.33-10.72-15.87ZM45.07,130.61c-.46.81-1.1,1.48-1.87,1.95-.75.46-1.62.74-2.53.75-1.04.02-2.17-.3-3.29-1.05,2.27-2.2.94-8.2-.89-8.85-.66,2.93-1.99,5.1-3.65,6.46-1.16.95-2.49,1.49-3.85,1.59-1.37.1-2.79-.23-4.14-1.03-2.01-1.2-3.86-3.42-5.19-6.77-2.58,1.56-1.69,5.76-1.49,7.2-1.28.78-2.91,1.5-4.13,1.09-1.72-.57-2.39-1.81-2.62-2.41.46-2.53,3-13.87,11.96-14.84,5.21-.56,9.75-.58,13.42.95,3.52,1.46,6.39,4.46,8.53,9.99.71,1.84.5,3.61-.27,4.99ZM122.49,131.94c-1.22.41-2.85-.31-4.13-1.09.2-1.43,1.09-5.63-1.49-7.2-1.33,3.36-3.18,5.58-5.19,6.77-1.34.8-2.77,1.14-4.14,1.03-1.36-.1-2.69-.65-3.85-1.59-1.66-1.36-2.99-3.53-3.65-6.46-1.83.64-3.16,6.65-.89,8.85-1.12.75-2.25,1.07-3.29,1.05-.91-.02-1.78-.29-2.53-.75-.76-.47-1.41-1.15-1.87-1.95-.78-1.38-.99-3.15-.27-4.99,2.14-5.52,5.01-8.53,8.53-9.99,3.66-1.52,8.21-1.51,13.42-.95,8.97.97,11.51,12.32,11.96,14.84-.23.61-.9,1.84-2.62,2.41Z"/>
    <path class="cls-1" d="M12.96,124.21c.62.08,1.26.13,1.9.13,6.36,0,11.73-4.21,13.48-10-1.57.03-3.22.16-4.95.34-5.71.62-8.82,5.45-10.44,9.53Z"/>
    <path class="cls-2" d="M113.15,114.69c-5.21-.56-9.75-.58-13.42.95-3.52,1.46-6.39,4.46-8.53,9.99-.71,1.84-.5,3.61.27,4.99.46.81,1.1,1.48,1.87,1.95.75.46,1.62.74,2.53.75,1.04.02,2.17-.3,3.29-1.05-2.27-2.2-.94-8.2.89-8.85.66,2.93,1.99,5.1,3.65,6.46,1.16.95,2.49,1.49,3.85,1.59,1.37.1,2.79-.23,4.14-1.03,2.01-1.2,3.86-3.42,5.19-6.77,2.58,1.56,1.69,5.76,1.49,7.2,1.28.78,2.91,1.5,4.13,1.09,1.72-.57,2.39-1.81,2.62-2.41-.46-2.53-3-13.87-11.96-14.84Z"/>
    <path class="cls-2" d="M36.81,115.63c-2.45-1.02-5.3-1.35-8.47-1.29-1.75,5.78-7.12,10-13.48,10-.65,0-1.28-.04-1.9-.13-.92,2.32-1.36,4.4-1.53,5.32.23.61.9,1.84,2.62,2.41,1.22.41,2.85-.31,4.13-1.09-.2-1.43-1.09-5.63,1.49-7.2,1.33,3.36,3.18,5.58,5.19,6.77,1.34.8,2.77,1.14,4.14,1.03,1.36-.1,2.69-.65,3.85-1.59,1.66-1.36,2.99-3.53,3.65-6.46,1.83.64,3.16,6.65.89,8.85,1.12.75,2.25,1.07,3.29,1.05.91-.02,1.78-.29,2.53-.75.76-.47,1.41-1.15,1.87-1.95.78-1.38.99-3.15.27-4.99-2.14-5.52-5.01-8.53-8.53-9.99Z"/>
    <path class="cls-3" d="M116.46,68.94c-2.85-2.29-2.8-7.2-2.01-10.57,5.07-12.74,6.78-26.64,2.07-39.75-1.76-4.89-5.1-11.03-8.97-14.65l-1.84-1.72-2.48.41c-6.58,1.1-15.02,8.77-20.43,14.57-8.05-1.01-20.64-1.01-28.69,0-5.41-5.79-13.85-13.47-20.43-14.57l-2.48-.41-1.84,1.72c-3.87,3.62-7.21,9.74-8.97,14.64-4.72,13.12-3.01,27.03,2.06,39.77.92,3.9.84,9.88-3.59,11.44l-3.08,1.09-.3,3.25c-1.15,12.56,5.8,21.62,15.47,27.48.46.23,31.56,16.01,70.2,1.72,14.78-5.99,18.27-13.28,20.03-28.89v-3.49s-3.8-1.07-4.73-2.03h0Z"/>
    <path class="cls-2" d="M109.59,56.8c12.89-31.93-5.52-49.12-5.52-49.12-7.37,1.23-19.65,15.35-19.65,15.35l-1.23-.61c-6.81-1-22.66-1-29.47,0l-1.23.61s-12.28-14.12-19.65-15.35c0,0-18.42,17.19-5.53,49.12,0,0,3.68,14.12-6.75,17.81-4.14,39.55,99.07,40.44,95.79,0-10.44-3.68-6.76-17.81-6.76-17.81ZM31.72,46.16c-6.24-15.04,2.08-33.99,2.08-33.99,9.02,5.55,11.19,16.58,11.19,16.58-7.72,4.23-11.9,14.57-13.27,17.41ZM43.29,66.63c-.19-.73-.3-1.51-.3-2.3,0-4.99,4.05-9.04,9.04-9.04s9.04,4.05,9.04,9.04c0,.8-.1,1.57-.3,2.3-1.02-3.88-4.55-6.74-8.74-6.74s-7.73,2.86-8.74,6.74ZM68.82,82.32c-1.67,3.41-4.88,6.34-10.76,1.49l2.1-2.56c4.09,3.36,5.92-.5,6.63-2.99l-3.11-3.11c-.94-.94-1.33-3.43,0-3.43h10.29c1.34,0,.94,2.49,0,3.43l-3.11,3.11c.72,2.5,2.55,6.36,6.63,3l2.1,2.56c-5.89,4.85-9.1,1.92-10.77-1.49ZM94.35,66.63c-1.02-3.88-4.55-6.74-8.74-6.74-4.2,0-7.72,2.86-8.74,6.74-.19-.74-.3-1.51-.3-2.3,0-4.99,4.05-9.04,9.04-9.04s9.04,4.05,9.04,9.04c0,.8-.1,1.57-.3,2.3ZM105.92,46.16c-1.38-2.84-5.55-13.18-13.27-17.41,0,0,2.17-11.03,11.19-16.58,0,0,8.32,18.95,2.08,33.99Z"/>
    <path class="cls-1" d="M104.06,7.68c-7.37,1.23-19.65,15.35-19.65,15.35l-1.23-.61c-3.95-.58-10.92-.82-17.42-.73-9.32,17.55-3.12,39.47,14.22,49.49,10.6,6.12,22.97,6.41,33.39,1.87-6.71-5.06-3.79-16.24-3.79-16.24,12.89-31.93-5.52-49.12-5.52-49.12ZM94.35,66.63c-1.02-3.88-4.55-6.74-8.74-6.74-4.2,0-7.72,2.86-8.74,6.74-.19-.74-.3-1.51-.3-2.3,0-4.99,4.05-9.04,9.04-9.04s9.04,4.05,9.04,9.04c0,.8-.1,1.57-.3,2.3ZM105.92,46.16c-1.38-2.84-5.55-13.18-13.27-17.41,0,0,2.17-11.03,11.19-16.58,0,0,8.32,18.95,2.08,33.99Z"/>
    <path class="cls-3" d="M104.91,65.6l-21.71,5.97c-.6.17-.95.79-.79,1.39.17.6.79.95,1.39.79l21.71-5.97c.6-.17.96-.79.79-1.39-.17-.6-.79-.95-1.39-.79Z"/>
    <path class="cls-3" d="M107,87.89l-24.54-7.64c-.59-.19-1.23.15-1.42.74-.19.6.15,1.23.74,1.42l24.54,7.64c.59.19,1.23-.15,1.42-.74.19-.6-.15-1.23-.74-1.42Z"/>
    <path class="cls-3" d="M108.9,78.8l-25.5-3.14c-.62-.08-1.18.36-1.26.98-.08.62.36,1.18.98,1.26l25.5,3.14c.62.08,1.18-.36,1.26-.98.08-.62-.36-1.18-.98-1.26Z"/>
    <path class="cls-3" d="M53.68,72.1l-21.71-5.97c-.6-.17-1.23.19-1.39.79-.17.6.19,1.22.79,1.39l21.71,5.97c.6.17,1.23-.19,1.39-.79.17-.6-.19-1.23-.79-1.39Z"/>
    <path class="cls-3" d="M54.42,80.79l-24.54,7.64c-.6.19-.93.82-.74,1.42.19.6.82.93,1.42.74l24.54-7.64c.6-.19.93-.82.74-1.42-.19-.6-.82-.93-1.42-.74Z"/>
    <path class="cls-3" d="M53.49,76.2l-25.5,3.14c-.62.08-1.06.64-.98,1.26.08.62.64,1.06,1.26.98l25.5-3.14c.62-.08,1.06-.64.98-1.26-.08-.62-.64-1.06-1.26-.98Z"/>
  </g>
</svg>