<?xml version="1.0" encoding="UTF-8"?>
<svg id="Layer_2" data-name="Layer 2" xmlns="http://www.w3.org/2000/svg" viewBox="0 0 217.24 79.32">
  <defs>
    <style>
      .cls-1 {
        fill-rule: evenodd;
      }

      .cls-1, .cls-2 {
        fill: #592464;
      }

      .cls-2 {
        font-family: Roboto-Black, Roboto;
        font-size: 47.9px;
        font-weight: 800;
      }
    </style>
  </defs>
  <g id="Main_Logo" data-name="Main Logo">
    <text id="Replace_With_Your_Brand_Name" data-name="Replace With Your Brand Name" class="cls-2" transform="translate(58.12 52.14)"><tspan x="0" y="0">live</tspan><tspan x="77.17" y="0">talk</tspan></text>
    <path id="Symbol" class="cls-1" d="M13.34,0h23.71c7.34,0,13.34,6,13.34,13.34v42.03l4.62,11.6,4.92,12.35-12.35-4.92-11.6-4.62H13.34c-7.34,0-13.34-6-13.34-13.34V13.34C0,6,6,0,13.34,0h0ZM25.19,27.8c-3.91,0-7.09,3.17-7.09,7.09s3.17,7.09,7.09,7.09,7.09-3.17,7.09-7.09-3.17-7.09-7.09-7.09h0ZM25.19,30.35c-2.5,0-4.54,2.03-4.54,4.54s2.03,4.54,4.54,4.54,4.54-2.03,4.54-4.54-2.03-4.54-4.54-4.54h0ZM49.53,68.92l-2.59-6.49-2.36-5.93c0-.09,0-.18,0-.28v-7.37h-6.21c-1.61,0-2.92-1.31-2.92-2.92h0c0-1.61,1.31-2.92,2.92-2.92h6.21v-5.2h-6.21c-1.61,0-2.92-1.31-2.92-2.92h0c0-1.61,1.31-2.92,2.92-2.92h6.21v-5.2h-6.21c-1.61,0-2.92-1.31-2.92-2.92h0c0-1.61,1.31-2.92,2.92-2.92h6.21v-7.37c0-4.27-3.49-7.76-7.76-7.76H13.56c-4.27,0-7.76,3.49-7.76,7.76v7.37h6.21c1.61,0,2.92,1.31,2.92,2.92h0c0,1.61-1.31,2.92-2.92,2.92h-6.21v5.2h6.21c1.61,0,2.92,1.31,2.92,2.92h0c0,1.6-1.31,2.92-2.92,2.92h-6.21v5.2h6.21c1.61,0,2.92,1.31,2.92,2.92h0c0,1.61-1.31,2.92-2.92,2.92h-6.21v7.37c0,4.27,3.49,7.76,7.76,7.76h23.27c.09,0,.18,0,.28,0l5.93,2.36,6.49,2.59Z"/>
  </g>
</svg>